<svg xmlns="http://www.w3.org/2000/svg" xmlns:xlink="http://www.w3.org/1999/xlink" width="95" height="54" viewBox="0 0 95 54"><defs><style>.a,.c,.d{fill:#fff;}.a{stroke:#707070;}.b{clip-path:url(#a);}.c{font-size:14px;font-family:Bauhaus93, 'Bauhaus 93';}.e{fill:url(#b);}.f{fill:url(#e);}</style><clipPath id="a"><rect class="a" width="95" height="54" transform="translate(636)"/></clipPath><linearGradient id="b" y1="0.5" x2="1" y2="0.5" gradientUnits="objectBoundingBox"><stop offset="0" stop-color="#803266"/><stop offset="0.02" stop-opacity="0"/><stop offset="0.02" stop-color="#040203" stop-opacity="0.031"/><stop offset="0.02" stop-color="#11070e" stop-opacity="0.141"/><stop offset="0.02" stop-color="#270f1f" stop-opacity="0.302"/><stop offset="0.03" stop-color="#451b37" stop-opacity="0.541"/><stop offset="0.03" stop-color="#6b2a56" stop-opacity="0.839"/><stop offset="0.03" stop-color="#803266"/></linearGradient><linearGradient id="e" x1="-0.003" xlink:href="#b"/></defs><g class="b" transform="translate(-636)"><g transform="translate(640.57 0)"><text class="c" transform="translate(44.86 34.34)"><tspan x="0" y="0">KIAME</tspan></text><ellipse class="d" cx="4.69" cy="4.54" rx="4.69" ry="4.54" transform="translate(0 0)"/><ellipse class="e" cx="1.84" cy="1.78" rx="1.84" ry="1.78" transform="translate(2.86 2.77)"/><path class="d" d="M55.49,12.27H37a1.52,1.52,0,0,0-1.5,1.5V45.68a1.5,1.5,0,0,0,3,0V13.77L37,15.27H55.5a1.5,1.5,0,0,0,0-3Z"/><path class="d" d="M8.76,5.9H49L47.5,4.4v9.06a1.5,1.5,0,0,0,3,0V4.4A1.5,1.5,0,0,0,49,2.9H8.76a1.5,1.5,0,0,0,0,3Z"/><path class="d" d="M37.22,12.27H17.79a1.5,1.5,0,0,0,0,3H37.22a1.5,1.5,0,0,0,0-3Z"/><path class="d" d="M37,35.4H26.81l1.5,1.5V25.83a1.5,1.5,0,0,0-3,0V36.9a1.52,1.52,0,0,0,1.5,1.5H37a1.5,1.5,0,0,0,0-3Z"/><path class="d" d="M19.05,13.77V4.65a1.5,1.5,0,0,0-3,0V13.8a1.5,1.5,0,0,0,3,0Z"/><ellipse class="d" cx="4.69" cy="4.54" rx="4.69" ry="4.54" transform="translate(22.27 18.07)"/><ellipse class="e" cx="1.84" cy="1.78" rx="1.84" ry="1.78" transform="translate(25.13 20.85)"/><ellipse class="d" cx="4.69" cy="4.54" rx="4.69" ry="4.54" transform="translate(32.42 44.92)"/><ellipse class="e" cx="1.84" cy="1.78" rx="1.84" ry="1.78" transform="translate(35.28 47.7)"/><ellipse class="d" cx="4.69" cy="4.54" rx="4.69" ry="4.54" transform="translate(52.62 9.95)"/><ellipse class="f" cx="1.84" cy="1.78" rx="1.84" ry="1.78" transform="translate(55.48 12.73)"/></g></g></svg>